PathFileType	4	(x/y/z)	S10_P20_T25
DataRate	CameraRate	NumFrames	NumMarkers	Units	OrigDataRate	OrigDataStartFrame	OrigNumFrames
240	240	7	51	mm	240	100	396
Frame#	Time	Sternum			R.Acromium			L.Acromium			Top.Head			R.ASIS			L.ASIS			R.PSIS			L.PSIS			R.Great.Tro			L.Great.Tro			R.Iliac.Crest			L.Iliac.Crest			V.Sacral			R.Thigh.Upper.Post			R.Thigh.Lower.Ant			R.Thigh.Lower.Post			R.Thigh.Upper.Ant			R.Knee.Lat			R.Knee.Med			R.Shank.Upper.Post			R.Shank.Lower.Ant			R.Shank.Lower.Post			R.Shank.Upper.Ant			R.Ankle.Lat			R.Ankle.Med			R.Heel.Upper			R.Heel.Med			R.Heel.Lat			R.Toe.Lat			R.Toe.Med			R.Toe.Tip			L.Thigh.Upper.Post			L.Thigh.Lower.Ant			L.Thigh.Lower.Post			L.Thigh.Upper.Ant			L.Knee.Lat			L.Knee.Med			L.Shank.Upper.Post			L.Shank.Lower.Ant			L.Shank.Lower.Post			L.Shank.Upper.Ant			L.Ankle.Lat			L.Ankle.Med			L.Heel.Upper			L.Heel.Med			L.Heel.Lat			L.Toe.Lat			L.Toe.Med			L.Toe.Tip			Cervical.Spine			Back			
		X1	Y1	Z1	X2	Y2	Z2	X3	Y3	Z3	X4	Y4	Z4	X5	Y5	Z5	X6	Y6	Z6	X7	Y7	Z7	X8	Y8	Z8	X9	Y9	Z9	X10	Y10	Z10	X11	Y11	Z11	X12	Y12	Z12	X13	Y13	Z13	X14	Y14	Z14	X15	Y15	Z15	X16	Y16	Z16	X17	Y17	Z17	X18	Y18	Z18	X19	Y19	Z19	X20	Y20	Z20	X21	Y21	Z21	X22	Y22	Z22	X23	Y23	Z23	X24	Y24	Z24	X25	Y25	Z25	X26	Y26	Z26	X27	Y27	Z27	X28	Y28	Z28	X29	Y29	Z29	X30	Y30	Z30	X31	Y31	Z31	X32	Y32	Z32	X33	Y33	Z33	X34	Y34	Z34	X35	Y35	Z35	X36	Y36	Z36	X37	Y37	Z37	X38	Y38	Z38	X39	Y39	Z39	X40	Y40	Z40	X41	Y41	Z41	X42	Y42	Z42	X43	Y43	Z43	X44	Y44	Z44	X45	Y45	Z45	X46	Y46	Z46	X47	Y47	Z47	X48	Y48	Z48	X49	Y49	Z49	X50	Y50	Z50	X51	Y51	Z51	

100	0.4125	-770.31	1289.5	313.4	-921.48	1434.5	452.15	-868.12	1482.6	161.54	-912.65	1759.9	339.19	-828.42	1021.2	403.78	-812.89	1031.9	175.42	-1024.8	1034.4	307.4	-1013.4	1043.1	227.69	-893.38	944.16	477.81	-878.63	968.6	114.96	-930.45	1098.7	441.53	-884.97	1108	145.33	-1040.7	1004.4	268.97	-801.66	745.47	473.28	-721.24	694.59	436.05	-773.36	661	466.08	-748.89	781.79	438.09	-735.36	541.65	427.95	-730.62	545.69	300.67	-773.25	311.51	427.34	-698.27	259.67	423.31	-760.25	238.32	422.86	-705.91	336.27	426.94	-721.41	129.31	409.28	-704.24	143.81	332.39	-764.42	70.221	353.32	-746.56	47.143	326.96	-760.2	46.368	387.27	-597.9	66.878	455.72	-557.64	83.539	352.77	-511.91	111.47	401.18	-973.14	705.93	127.67	-919.87	613.04	154.53	-991.61	614.96	149.39	-893.11	697.81	130.77	-980.96	520.58	161.18	-969.2	521.22	291.16	-1082.9	325.09	166.79	-1039.4	224.79	188.03	-1095.9	248.88	180.14	-1026.4	299.56	174.6	-1098.4	121.06	199.15	-1080.9	131.26	284.72	-1170.6	98.202	244.28	-1162.5	63.352	275.34	-1165.3	68.752	210.78	-991.06	41.52	174.85	-965.71	43.869	285.09	-907.99	48.159	237.84	-976.32	1502.2	302.59	-1054.1	1295.7	265.38
101	0.41667	-764.8	1288.6	313.6	-916.14	1433.7	452.31	-862.46	1482	161.86	-907.28	1759.2	339.5	-822.75	1020.5	403.91	-807.46	1031	175.54	-1019.2	1033.8	307.72	-1007.9	1042.5	228	-887.78	943.39	478.08	-873.47	967.97	115.11	-924.65	1098	441.75	-879.42	1107.1	145.47	-1035.2	1003.8	269.31	-797.25	744.08	473.34	-717.17	692.77	436.04	-769.49	659.45	465.99	-744.26	780.12	438.19	-731.04	540.54	427.52	-727.09	544.11	300	-763.88	309.73	427.6	-687.73	259.55	423.13	-749.2	236.78	423.07	-697.11	336.04	426.74	-707.8	128.44	409.52	-691.24	143.26	332.5	-749.69	68.154	353.78	-731.23	45.454	327.34	-744.67	44.439	387.73	-582.52	68.94	455.59	-543.08	86.351	352.44	-497.81	115.45	400.67	-969.41	706.02	127.84	-916.71	612.76	154.5	-988.09	615.26	149.31	-889.4	697.44	130.7	-978.24	520.61	161.23	-966.22	521.16	291.24	-1081.2	325.71	166.89	-1038.3	225.12	188.07	-1094.7	249.48	180.32	-1024.8	299.83	174.61	-1097.9	121.65	199.27	-1080.2	131.81	284.84	-1170.4	99.183	244.41	-1162.2	64.256	275.42	-1165	69.624	210.86	-990.97	41.51	174.83	-965.59	43.857	285.07	-907.88	47.912	237.81	-970.82	1501.4	302.64	-1048.5	1294.9	265.33
102	0.42083	-759.27	1287.8	313.8	-910.77	1432.8	452.49	-856.82	1481.4	162.18	-901.9	1758.4	339.82	-817.07	1019.8	404.06	-802	1030.2	175.69	-1013.6	1033.2	308.05	-1002.4	1041.9	228.32	-882.18	942.57	478.35	-868.31	967.32	115.27	-918.85	1097.3	441.99	-873.84	1106.3	145.62	-1029.7	1003.2	269.65	-792.8	742.69	473.44	-713.06	690.95	436.04	-765.59	657.89	465.93	-739.6	778.45	438.31	-726.71	539.42	427.1	-723.62	542.51	299.35	-754.71	308.06	427.87	-677.49	259.48	422.93	-738.44	235.38	423.27	-688.51	335.83	426.52	-694.61	127.72	409.72	-678.69	142.82	332.58	-735.45	66.31	354.22	-716.43	43.97	327.7	-729.63	42.735	388.17	-567.66	71.056	455.36	-529.1	89.169	351.98	-484.25	119.39	400.01	-965.58	706.09	128.01	-913.43	612.46	154.46	-984.45	615.52	149.23	-885.62	697.05	130.64	-975.4	520.61	161.29	-963.1	521.05	291.32	-1079.5	326.33	166.97	-1037.2	225.43	188.1	-1093.5	250.09	180.5	-1023.2	300.08	174.62	-1097.4	122.27	199.36	-1079.5	132.37	284.94	-1170.1	100.18	244.53	-1161.9	65.192	275.47	-1164.7	70.517	210.91	-990.88	41.493	174.8	-965.46	43.849	285.04	-907.76	47.675	237.77	-965.32	1500.6	302.72	-1042.9	1294.1	265.31
103	0.425	-753.73	1286.9	314.01	-905.37	1431.9	452.68	-851.19	1480.7	162.49	-896.53	1757.7	340.13	-811.39	1019	404.21	-796.53	1029.3	175.84	-1008	1032.5	308.38	-996.88	1041.3	228.64	-876.58	941.69	478.62	-863.12	966.67	115.43	-913.06	1096.6	442.24	-868.24	1105.5	145.78	-1024.2	1002.7	269.98	-788.3	741.3	473.56	-708.91	689.14	436.06	-761.63	656.33	465.89	-734.9	776.78	438.46	-722.35	538.29	426.7	-720.21	540.91	298.7	-745.75	306.5	428.12	-667.56	259.44	422.68	-727.98	234.09	423.45	-680.12	335.64	426.28	-681.86	127.13	409.87	-666.61	142.49	332.61	-721.74	64.671	354.65	-702.21	42.67	328.03	-715.13	41.239	388.59	-553.35	73.19	455.02	-515.71	91.952	351.4	-471.25	123.24	399.21	-961.65	706.13	128.19	-910.03	612.16	154.42	-980.71	615.75	149.17	-881.77	696.65	130.58	-972.42	520.58	161.37	-959.83	520.9	291.4	-1077.6	326.94	167.05	-1035.9	225.75	188.13	-1092.3	250.71	180.66	-1021.5	300.33	174.63	-1096.8	122.9	199.43	-1078.7	132.95	285.02	-1169.8	101.2	244.6	-1161.6	66.166	275.51	-1164.4	71.431	210.94	-990.79	41.469	174.78	-965.33	43.846	285.01	-907.65	47.448	237.73	-959.8	1499.8	302.83	-1037.3	1293.3	265.32
104	0.42917	-748.18	1286	314.21	-899.95	1431	452.89	-845.57	1480	162.81	-891.15	1756.9	340.43	-805.7	1018.1	404.37	-791.05	1028.5	176	-1002.4	1031.9	308.71	-991.34	1040.6	228.97	-871	940.77	478.88	-857.92	966.01	115.59	-907.27	1095.8	442.51	-862.6	1104.6	145.95	-1018.7	1002.1	270.32	-783.74	739.91	473.7	-704.69	687.35	436.08	-757.59	654.78	465.85	-730.15	775.13	438.62	-717.95	537.17	426.32	-716.83	539.33	298.07	-737.01	305.04	428.36	-657.95	259.44	422.4	-717.85	232.92	423.61	-671.96	335.46	426.01	-669.6	126.65	409.97	-655.04	142.23	332.59	-708.61	63.219	355.05	-688.59	41.531	328.33	-701.2	39.932	388.99	-539.62	75.309	454.56	-502.95	94.659	350.7	-458.83	126.95	398.27	-957.62	706.14	128.38	-906.5	611.83	154.38	-976.86	615.94	149.13	-877.84	696.22	130.54	-969.31	520.52	161.46	-956.41	520.7	291.49	-1075.6	327.57	167.12	-1034.6	226.05	188.15	-1090.9	251.33	180.82	-1019.7	300.56	174.65	-1096.2	123.55	199.48	-1078	133.55	285.06	-1169.5	102.24	244.65	-1161.2	67.179	275.52	-1164.1	72.371	210.95	-990.69	41.437	174.75	-965.21	43.848	284.98	-907.53	47.231	237.67	-954.27	1499	302.97	-1031.7	1292.5	265.36
105	0.43333	-742.62	1285	314.43	-894.51	1430.1	453.11	-839.96	1479.3	163.12	-885.77	1756.1	340.74	-800.02	1017.3	404.54	-785.55	1027.6	176.18	-996.81	1031.2	309.05	-985.78	1040	229.3	-865.41	939.81	479.13	-852.7	965.34	115.76	-901.48	1095	442.79	-856.92	1103.7	146.14	-1013.2	1001.4	270.65	-779.1	738.55	473.85	-700.39	685.61	436.09	-753.46	653.27	465.81	-725.34	773.53	438.8	-713.48	536.06	425.96	-713.47	537.78	297.46	-728.51	303.69	428.58	-648.67	259.44	422.08	-708.06	231.84	423.75	-664.01	335.28	425.72	-657.84	126.26	410.02	-644	142.03	332.53	-696.07	61.935	355.43	-675.61	40.529	328.61	-687.88	38.797	389.36	-526.49	77.377	453.99	-490.84	97.247	349.87	-447.01	130.48	397.18	-953.49	706.12	128.57	-902.85	611.49	154.35	-972.92	616.08	149.13	-873.84	695.77	130.51	-966.05	520.43	161.56	-952.84	520.46	291.59	-1073.5	328.19	167.18	-1033.3	226.36	188.16	-1089.5	251.96	180.96	-1017.8	300.78	174.66	-1095.6	124.22	199.49	-1077.3	134.18	285.08	-1169.1	103.31	244.65	-1160.9	68.237	275.51	-1163.8	73.338	210.94	-990.59	41.399	174.71	-965.08	43.856	284.94	-907.41	47.021	237.61	-948.72	1498.2	303.13	-1026.1	1291.6	265.44
106	0.4375	-737.04	1284.1	314.64	-889.04	1429.1	453.34	-834.36	1478.5	163.43	-880.39	1755.3	341.04	-794.32	1016.3	404.72	-780.03	1026.7	176.37	-991.18	1030.5	309.39	-980.22	1039.3	229.63	-859.83	938.83	479.38	-847.46	964.67	115.93	-895.69	1094.2	443.08	-851.21	1102.8	146.34	-1007.6	1000.8	270.98	-774.38	737.23	474.01	-696.01	683.94	436.1	-749.24	651.8	465.77	-720.47	771.98	438.98	-708.95	534.98	425.61	-710.1	536.26	296.88	-720.26	302.43	428.78	-639.73	259.43	421.72	-698.64	230.86	423.86	-656.29	335.08	425.4	-646.6	125.93	410.02	-633.5	141.86	332.43	-684.16	60.801	355.78	-663.32	39.642	328.86	-675.21	37.813	389.71	-513.99	79.357	453.3	-479.38	99.676	348.91	-435.8	133.78	395.94	-949.25	706.07	128.78	-899.08	611.13	154.32	-968.92	616.15	149.18	-869.75	695.3	130.51	-962.64	520.3	161.67	-949.12	520.16	291.69	-1071.3	328.82	167.22	-1031.8	226.66	188.16	-1088.1	252.61	181.09	-1015.9	300.99	174.68	-1094.9	124.91	199.48	-1076.5	134.82	285.06	-1168.7	104.42	244.61	-1160.6	69.343	275.48	-1163.4	74.337	210.9	-990.48	41.355	174.67	-964.96	43.87	284.9	-907.29	46.82	237.55	-943.16	1497.4	303.32	-1020.5	1290.7	265.56
